<?xml version="1.0" standalone="no"?>
 <!DOCTYPE svg PUBLIC "-//W3C//DTD SVG 1.1//EN" 
 "http://www.w3.org/Graphics/SVG/1.1/DTD/svg11.dtd"> 
<svg
  xmlns:svg="http://www.w3.org/2000/svg"
  xmlns="http://www.w3.org/2000/svg"
  xmlns:xlink="http://www.w3.org/1999/xlink"
  version="1.1"
  width="29.700220cm" height="21.000720cm" viewBox="0 0 297002200 210007200">
<title>SVG Picture created as placa-Edge_Cuts.svg date 2022/10/20 22:52:15 </title>
  <desc>Picture generated by PCBNEW </desc>
<g style="fill:#000000; fill-opacity:1.000000;stroke:#000000; stroke-opacity:1.000000;
stroke-linecap:round; stroke-linejoin:round;"
 transform="translate(0 0) scale(1 1)">
</g>
<g style="fill:#000000; fill-opacity:0.0; 
stroke:#000000; stroke-width:0.000000; stroke-opacity:1; 
stroke-linecap:round; stroke-linejoin:round;">
</g>
<g style="fill:#000000; fill-opacity:1.0; 
stroke:#000000; stroke-width:21200.000000; stroke-opacity:1; 
stroke-linecap:round; stroke-linejoin:round;">
<rect x="66882000.000000" y="9318145.000000" width="135730000.000000" height="157987855.000000" rx="0.000000" />
</g>
<g style="fill:#FFFFFF; fill-opacity:1.0; 
stroke:#FFFFFF; stroke-width:21200.000000; stroke-opacity:1; 
stroke-linecap:round; stroke-linejoin:round;">
</g>
<g style="fill:#FFFFFF; fill-opacity:1.0; 
stroke:#FFFFFF; stroke-width:200000.000000; stroke-opacity:1; 
stroke-linecap:round; stroke-linejoin:round;">
</g>
<g style="fill:#FFFFFF; fill-opacity:0.0; 
stroke:#FFFFFF; stroke-width:200000.000000; stroke-opacity:1; 
stroke-linecap:round; stroke-linejoin:round;">
<path d="M84198000 64526487
L84198000 52526487
" />
<path d="M177198000.000000 149526500.000000 A10000000.000000 10000000.000000 0.0 0 0 187197999.999992 139526487.000000" />
<path d="M87198013.000008 139526487.000017 A9999987.000000 9999987.000000 0.0 0 0 97198000.000000 149526487.000000" />
<path d="M106943442.944295 84335314.455044 A1376188.000000 1376188.000000 0.0 0 0 109201545.450094 82881545.835046" />
<path d="M105198000.000000 29526500.000000 A3000000.000000 3000000.000000 0.0 0 0 102198000.000028 32526487.000000" />
<path d="M106700574.416240 76057593.155107 A15000155.000000 15000155.000000 0.0 0 0 96065290.052973 66621271.775763" />
<path d="M104198000 52526487
L84198000 52526487
" />
<path d="M137198000 29526487
L169198000 29526487
" />
<path d="M98969241.271454 94212753.170820 A19999940.000000 19999940.000000 0.0 0 0 87198000.000046 112441513.000000" />
<path d="M107198012.999972 42526486.999944 A3000013.000000 3000013.000000 0.0 0 0 104198000.000000 39526487.000000" />
<path d="M179272324.947441 66507909.789737 A15000061.000000 15000061.000000 0.0 0 0 169219086.853280 74932312.934333" />
<path d="M84198000 64526487
L96065290 66621272
" />
<path d="M102198000 36526487
L102198000 32526487
" />
<path d="M170198000.000000 39526500.000000 A3000000.000000 3000000.000000 0.0 0 0 167198000.000028 42526487.000000" />
<path d="M165228999.222345 83847325.434150 A1380013.000000 1380013.000000 0.0 0 0 167308379.166452 85521234.225407" />
<path d="M175426757 79526487
L175426757 94212757
" />
<path d="M167308379 85521234
L175426757 79526487
" />
<path d="M102198000 39526487
L104198000 39526487
" />
<path d="M167198013.000028 49526487.000056 A2999987.000000 2999987.000000 0.0 0 0 170198000.000000 52526487.000000" />
<path d="M190198000 64526487
L190198000 52526487
" />
<path d="M104198000.000000 52526500.000000 A3000000.000000 3000000.000000 0.0 0 0 107197999.999972 49526487.000000" />
<path d="M190198000 64526487
L179272324 66507906
" />
<path d="M187198000 139526487
L187198000 112441513
" />
<path d="M98969243 94212757
L100971946 78450325
" />
<path d="M100971946 78450325
L106943470 84335287
" />
<path d="M172198000 36526487
L172198000 39526487
" />
<path d="M107198000 42526487
L107198000 49526487
" />
<path d="M169219087 74932313
L165229034 83847341
" />
<path d="M172198000 32526487
L172198000 36526487
" />
<path d="M87198000 139526487
L87198000 112441513
" />
<path d="M97198000 149526487
L177198000 149526487
" />
<path d="M105198000 29526487
L137198000 29526487
" />
<path d="M187197928.999996 112441512.999954 A20000029.000000 20000029.000000 0.0 0 0 175426757.011462 94212756.974609" />
<path d="M172198012.999972 32526486.999944 A3000013.000000 3000013.000000 0.0 0 0 169198000.000000 29526487.000000" />
<path d="M106700523 76057612
L109201545 82881546
" />
<path d="M170198000 52526487
L190198000 52526487
" />
<path d="M172198000 39526487
L170198000 39526487
" />
<path d="M102198000 36526487
L102198000 39526487
" />
<path d="M167198000 42526487
L167198000 49526487
" />
<g >
</g>
<g >
</g>
<g >
</g>
<g >
</g>
<g >
</g>
<g >
</g>
<g >
</g>
<g >
</g>
<g >
</g>
<g >
</g>
<g >
</g>
<g >
</g>
<g >
</g>
<g >
</g>
<g >
</g>
<g >
</g>
</g> 
</svg>
